#!OML:ASF X:\für Bonn\!DataBase\2005_08_11_Bastian_Final\c3d\Bastian.ASF
:FULLY-SPECIFIED
:DEGREES
77
root 1.45374 7.00414 1.02387 168.371 0.632121 -173.386
lowerback 40.6009 -0.310881 3.92269
upperback 4.79297 -0.66905 1.99936
thorax -14.3139 -1.40515 0.692564
lowerneck -17.6991 -8.31332 -4.82079
upperneck -10.874 -7.91822 12.5657
head 0.305557 -2.76406 4.17453
rclavicle 1.63997e-014 1.27222e-014
rhumerus 76.2093 -4.53498 -4.26706
rradius 43.0672
rwrist -59.4416
rhand -41.0686 -2.87659
rfingers 7.12502
rthumb -13.9978 -32.3853
lclavicle 1.63997e-014 1.27222e-014
lhumerus 57.2723 4.34594 -1.52622
lradius 38.7063
lwrist 14.5914
lhand -43.7076 10.3553
lfingers 7.12502
lthumb -16.5397 39.6704
rfemur -72.6812 -18.7798 37.1244
rtibia 151.051
rfoot -54.0701 -12.3488
rtoes 3.49976
lfemur -74.8137 68.4809 -10.6367
ltibia 155.866
lfoot -49.2824 -29.5111
ltoes 13.4902
78
root 1.44879 7.1042 1.03469 168.361 0.561792 -173.433
lowerback 40.6323 -0.310461 3.84647
upperback 4.83075 -0.715074 1.99613
thorax -14.2817 -1.42604 0.750555
lowerneck -17.8541 -8.31197 -4.8124
upperneck -10.842 -7.90801 12.5038
head 0.331965 -2.74999 4.1516
rclavicle -3.77691e-015 1.49089e-014
rhumerus 75.7468 -4.41838 -2.86736
rradius 43.3821
rwrist -60.713
rhand -41.7403 -2.81386
rfingers 7.12502
rthumb -14.6449 -32.2767
lclavicle -3.77691e-015 1.49089e-014
lhumerus 57.1554 3.95307 -2.16787
lradius 38.5269
lwrist 14.573
lhand -43.6213 10.7196
lfingers 7.12502
lthumb -16.4566 40.0416
rfemur -71.9853 -16.7703 36.8235
rtibia 150.232
rfoot -54.0068 -13.0426
rtoes 2.7934
lfemur -73.3528 66.0048 -10.0468
ltibia 155.04
lfoot -49.7033 -28.9064
ltoes 12.1528
79
root 1.44494 7.21984 1.04584 168.362 0.461869 -173.472
lowerback 40.5745 -0.327917 3.82198
upperback 4.89643 -0.771416 1.95331
thorax -14.1858 -1.45322 0.739296
lowerneck -18.0569 -8.3277 -4.75896
upperneck -10.7644 -7.92947 12.4811
head 0.381784 -2.7491 4.12935
rclavicle 6.85807e-015 1.37161e-014
rhumerus 75.2903 -4.26346 -1.75053
rradius 43.5758
rwrist -61.6149
rhand -42.3107 -2.81503
rfingers 7.12502
rthumb -15.1945 -32.2371
lclavicle 6.85807e-015 1.37161e-014
lhumerus 57.1554 3.60133 -2.62829
lradius 38.2777
lwrist 14.3483
lhand -43.4662 10.9201
lfingers 7.12502
lthumb -16.3073 40.2544
rfemur -71.2327 -14.8187 36.5694
rtibia 149.286
rfoot -53.8315 -14.0048
rtoes 1.56909
lfemur -72.0943 63.1951 -9.6804
ltibia 154.088
lfoot -49.9507 -28.3045
ltoes 10.8234
80
root 1.44076 7.34888 1.05629 168.411 0.356218 -173.498
lowerback 40.4266 -0.343506 3.75875
upperback 4.95917 -0.832323 1.95683
thorax -14.0631 -1.4773 0.798293
lowerneck -18.2539 -8.32827 -4.76456
upperneck -10.692 -7.92228 12.4375
head 0.428108 -2.73385 4.11259
rclavicle -3.97569e-016 -6.36111e-015
rhumerus 74.9927 -4.08781 -0.827338
rradius 43.6185
rwrist -62.1698
rhand -42.6956 -2.84815
rfingers 7.12502
rthumb -15.5652 -32.2418
lclavicle -3.97569e-016 -6.36111e-015
lhumerus 57.119 3.25229 -2.95831
lradius 37.9961
lwrist 14.1066
lhand -43.3294 10.9894
lfingers 7.12502
lthumb -16.1756 40.3345
rfemur -70.455 -12.9938 36.3456
rtibia 148.237
rfoot -53.6224 -15.0199
rtoes 0.17443
lfemur -71.0719 60.1255 -9.56242
ltibia 153.037
lfoot -50.0745 -27.6809
ltoes 9.56359
81
root 1.43671 7.4895 1.06643 168.527 0.234902 -173.502
lowerback 40.2246 -0.381449 3.73332
upperback 4.98503 -0.890648 1.95001
thorax -13.965 -1.49564 0.823198
lowerneck -18.4524 -8.32894 -4.77379
upperneck -10.5576 -7.92884 12.3917
head 0.494237 -2.72768 4.09365
rclavicle 5.36719e-015 -1.51076e-014
rhumerus 74.7931 -3.87377 -0.289897
rradius 43.4756
rwrist -62.2537
rhand -42.8244 -2.99692
rfingers 7.12502
rthumb -15.6892 -32.3809
lclavicle 5.36719e-015 -1.51076e-014
lhumerus 57.151 2.88446 -3.29354
lradius 37.6737
lwrist 13.9907
lhand -43.1685 10.8793
lfingers 7.12502
lthumb -16.0206 40.2369
rfemur -69.706 -11.3357 36.1662
rtibia 147.098
rfoot -53.3338 -16.0815
rtoes -1.20417
lfemur -70.2629 56.873 -9.6301
ltibia 151.885
lfoot -50.0313 -27.0703
ltoes 8.33748
82
root 1.43271 7.64085 1.0756 168.69 0.108006 -173.531
lowerback 39.9528 -0.416038 3.69135
upperback 5.01908 -0.953647 1.92028
thorax -13.8337 -1.51322 0.830885
lowerneck -18.6593 -8.32934 -4.71992
upperneck -10.4407 -7.9414 12.3155
head 0.552042 -2.72565 4.05508
rclavicle 3.47873e-015 -1.51076e-014
rhumerus 74.729 -3.71654 -0.145905
rradius 43.1005
rwrist -61.8179
rhand -42.6517 -3.32687
rfingers 7.12502
rthumb -15.5229 -32.7238
lclavicle 3.47873e-015 -1.51076e-014
lhumerus 57.2374 2.56007 -3.59193
lradius 37.3185
lwrist 13.9595
lhand -43.0745 10.6402
lfingers 7.12502
lthumb -15.9301 40.005
rfemur -69.0228 -9.96188 35.9579
rtibia 145.889
rfoot -52.9437 -17.0675
rtoes -2.64779
lfemur -69.5699 53.5174 -9.87047
ltibia 150.641
lfoot -49.8806 -26.4039
ltoes 6.99654
